<mxfile host="app.diagrams.net" modified="2024-06-04T18:01:28.692Z" agent="Mozilla/5.0 (Windows NT 10.0; Win64; x64) AppleWebKit/537.36 (KHTML, like Gecko) Chrome/124.0.0.0 Safari/537.36" version="24.4.4" etag="zUjRjazuGhT1BLgRJN3d" type="github">
  <diagram name="Page-1" id="EW6Hs_steBiP4dipKTH7">
    <mxGraphModel>
      <root>
        <mxCell id="0" />
        <mxCell id="1" parent="0" />
      </root>
    </mxGraphModel>
  </diagram>
</mxfile>
